<svg xmlns="http://www.w3.org/2000/svg" viewBox="0 0 224.34 220.89"><defs><style>.cls-1{fill:#e94480;}.cls-2{fill:#222223;}</style></defs><g id="Layer_2" data-name="Layer 2"><g id="Camada_1" data-name="Camada 1"><path class="cls-1" d="M102.73,6.77l0-6.72A112.24,112.24,0,0,0,9.88,65l8.63,0A104.65,104.65,0,0,1,102.83,7.75,4.46,4.46,0,0,1,102.73,6.77Z"/><path class="cls-1" d="M121.2,0l0,7.68a104.53,104.53,0,0,1,84.54,56.59l8.39,0A112.08,112.08,0,0,0,121.2,0Z"/><path class="cls-1" d="M7.75,110.47A101.87,101.87,0,0,1,11.4,83.55a3.69,3.69,0,0,1-.58,0l-7.47,0A109.11,109.11,0,0,0,0,110.35c-.09,58.37,45.56,106.22,103.54,110.54l0-7.45C49.82,209.07,7.67,164.63,7.75,110.47Z"/><path class="cls-1" d="M213,82.82a102.11,102.11,0,0,1,3.82,27.81c-.08,53.74-41.72,97.85-94.84,102.72a3.44,3.44,0,0,1,0,.46l0,7c57.26-5,102.22-52.42,102.3-110.26a109.76,109.76,0,0,0-3.52-27.73Z"/><path class="cls-2" d="M129.54,115.59a56.08,56.08,0,0,0,0-7.54,25.8,25.8,0,0,0-2.43-8.8,5.48,5.48,0,0,1,5.37-4,23.06,23.06,0,0,0,5.14-.56c5.67-1.26,5.4-3.52,7.28-4,1.39-.37,1.84-.2,2-.08-.41-.49-2.95-3.34-6-4.15-3.38-.89-10.34,1.86-13.72,6.32s-3.89,7.08-3.89,7.08a4.12,4.12,0,0,1,2,.62C125.88,101.05,129.52,106.16,129.54,115.59Z"/><path class="cls-2" d="M97.22,99.25a25.9,25.9,0,0,0-2.42,8.8,56.08,56.08,0,0,0,0,7.54c0-9.43,3.66-14.54,4.32-15.09a4.12,4.12,0,0,1,2-.62s-.52-2.61-3.89-7.08S86.89,85.59,83.5,86.48c-3.1.81-5.63,3.66-6,4.15.15-.12.6-.29,2,.08,1.89.5,1.62,2.76,7.28,4a23.14,23.14,0,0,0,5.15.56A5.48,5.48,0,0,1,97.22,99.25Z"/><path class="cls-2" d="M136,150.39v-3.1a2.85,2.85,0,0,0-.74-1.92h0a1.84,1.84,0,0,1-2.14,1.8c-.5-.07-1.08-.13-1.76-.16-2.73-.14-6.41-1.51-10.39-4.06a29.3,29.3,0,0,1-2.4-1.71,14.58,14.58,0,0,1-5.56-11.48h0l1.85-1.44c1.84-1.44,3-4.12,5.82-4.81s7.29-3.71,6.33-6.53-4.27-2.41-6.92-2.41-6.63,2.41-8,2.41-5.31-2.41-8-2.41-6-.41-6.93,2.41,3.54,5.84,6.34,6.53,4,3.37,5.82,4.81l1.84,1.44h0a14.58,14.58,0,0,1-5.55,11.47,27.21,27.21,0,0,1-2.4,1.72c-4,2.55-7.67,3.92-10.39,4.06-.69,0-1.27.09-1.76.16a1.85,1.85,0,0,1-2.15-1.8h0a2.89,2.89,0,0,0-.73,1.92v3.1a2.89,2.89,0,0,0,.73,1.92s-.22-3.16,1.55-3.78,5.23-.34,7.88-.82,9.8-5.36,11.2-5.78a9.4,9.4,0,0,1,5,0c1.41.42,8.55,5.29,11.2,5.78s6.12.2,7.89.82,1.54,3.78,1.54,3.78A2.85,2.85,0,0,0,136,150.39Z"/><path class="cls-2" d="M112.17,12.83c-54.73,0-99.25,43.78-99.25,97.61s44.52,97.61,99.25,97.61,99.25-43.79,99.25-97.61S166.9,12.83,112.17,12.83Zm87,131.14c-.31-1.49-.66-3-1.06-4.42-.35-1.29-.59-2.2-1-3.32a24.24,24.24,0,0,0,4.66.24Q200.64,140.3,199.15,144Zm-14.57,24.47c-.58-1.39-1.18-2.76-1.87-4.12.65,0,1.29,0,1.93,0,1.17-.07,2.33-.22,3.47-.4C187,165.44,185.81,167,184.58,168.44Zm5.11-6.89a28.9,28.9,0,0,1-10-.35,12.58,12.58,0,0,1-2.24-.77,17.17,17.17,0,0,1-2.1-1.14,20.39,20.39,0,0,1-3.74-3.07,25.51,25.51,0,0,1-3-3.83c-.45-.68-.86-1.39-1.25-2.11l-.45-.89.53-.11,1.46-.23-1.28-.86a39,39,0,0,1-6.23-4.9l0,0a.62.62,0,0,1,.66-1,16.41,16.41,0,0,0,1.87.65,16.68,16.68,0,0,0,4.14.57h1.62l-1.31-1.08a23.57,23.57,0,0,1-5.45-7,45.19,45.19,0,0,1-2-4.09c-.61-1.39-1.16-2.81-1.66-4.25-.64-1.76-1.19-3.55-1.73-5.35.14-.24.27-.47.39-.71s.33-.64.48-1,.3-.64.43-1a30.81,30.81,0,0,0,1.31-3.86c0-.13.06-.26.1-.4.9.9,1.77,1.84,2.58,2.83a34.86,34.86,0,0,1,2.6,3.56,38.46,38.46,0,0,1,5.16,12.24c.35,1.5.7,3.05,1.12,4.57a49.26,49.26,0,0,0,3.23,9,22.34,22.34,0,0,0,5.93,7.62,24.06,24.06,0,0,0,8.56,4.19c.64.18,1.28.34,1.92.49-.5.78-1,1.56-1.52,2.32Zm-17.88,19.56c-.52-1.19-1.07-2.35-1.67-3.5a56.68,56.68,0,0,0-2.94-5c1.57.89,3.1,1.78,4.62,2.69.76.46,1.53.95,2.27,1.41.52.34,1,.7,1.54,1.05C174.39,178.93,173.12,180,171.81,181.11Zm-3.38-2.55c.7,1.19,1.36,2.41,2,3.65l-1.3,1c-.8-1-1.62-1.9-2.46-2.83-1.53-1.7-3.12-3.35-4.8-4.93l-1.28-1.18-1.33-1.14c-.91-.74-1.87-1.46-2.75-2.1-1.79-1.33-3.55-2.7-5.23-4.13a58.57,58.57,0,0,1-4.81-4.49c-.89-.94-1.71-1.92-2.51-2.91.43-1.11,1.17-3,1.37-3.88a29.18,29.18,0,0,0,.63-4.26c1.36,2.19,2.7,4.26,3.69,5.54q2.24,2.91,4.7,5.65c1.42,1.56,2.93,3.07,4.51,4.5l.4.37.35.31A42.82,42.82,0,0,1,168.43,178.56Zm-10.61,12c0-.23,0-.46,0-.69v-1.52a22.81,22.81,0,0,1,1-6c.14-.49.32-1,.5-1.43a14.27,14.27,0,0,1,.63-1.38c.22-.43.46-.86.72-1.27q2.15,1.86,4.22,3.84l2.48,2.41A96,96,0,0,1,157.82,190.56Zm-2.28,1.22c-.07-.17-.16-.33-.24-.49-.85-1.91-1.75-3.84-2.47-5.8-1.81-5-3.24-10.15-4.89-15.21a.71.71,0,0,1,1.12-.76l0,0c1.8,1.45,3.65,2.81,5.53,4.12,1,.66,1.84,1.27,2.71,1.91l1.3,1,1.23,1a23.39,23.39,0,0,0-1.87,4.53,25.63,25.63,0,0,0-1,6.2c0,.9,0,1.81.06,2.71ZM136.92,199l-.37-.35c-.6-.63-1.2-1.27-1.76-1.94s-1.11-1.36-1.64-2.08c-.17-.23-.33-.48-.5-.72.27-1.36.49-2.73.64-4.11a52.06,52.06,0,0,0,.06-11.23,1.1,1.1,0,0,0,0-.18.64.64,0,0,1,1.17-.42l0,0a60,60,0,0,0,7.21,8.8l.86.86h0a31.41,31.41,0,0,1,1.05,3.33,33,33,0,0,1,.91,5.6C142.07,197.52,139.51,198.31,136.92,199Zm-12.07,2.43a36.78,36.78,0,0,0-.5-4c-.39-2.1-1-4.12-1.43-6.13a32.24,32.24,0,0,1-.59-4.14c.5-1.82,2.08-8.4,2.73-10.79,1.42-.74,4.47-2.85,4.88-3.1,0,0,.13,5.75.14,6.06a85.53,85.53,0,0,1-.39,10.12,61.12,61.12,0,0,1-1.84,10.42c-.11.4-.25.8-.37,1.19C126.61,201.2,125.73,201.32,124.85,201.44Zm-1.17.15c-1.68.2-3.37.36-5.07.47a20.46,20.46,0,0,1,.29-3.59,16.46,16.46,0,0,1,.55-2.2c.23-.72.53-1.54.79-2.3.43-1.31.85-2.62,1.25-3.94.08.5.18,1,.28,1.5.44,2.09,1.06,4.09,1.43,6.11A34.63,34.63,0,0,1,123.68,201.59ZM122,170.21c-1.22.95-3.45,4.86-3.45,4.86s-1.25-.19-.73-1.9a3.62,3.62,0,0,1,1.83-2.29,6.91,6.91,0,0,0-3.57,2.57,19.28,19.28,0,0,0-2.86,6.68,2.89,2.89,0,0,1-1.16,1.46,4.19,4.19,0,0,1-1.13-1.52c-.2-.86-1-4.48-2.69-6.67a6.9,6.9,0,0,0-3.57-2.58,3.69,3.69,0,0,1,1.83,2.29c.52,1.72,0,1.91,0,1.91a43.49,43.49,0,0,0-4.18-4.86c-1.23-1-4.91-1.43-4.91-1.43a10,10,0,0,1,2.59,1.52,5.91,5.91,0,0,1,1.77,3.42s-10.94-7.85-16-13.76a16.43,16.43,0,0,1-3.12-5.16c-.26-1.25-.47-2.51-.62-3.77-.11-.79-.18-1.59-.26-2.39l-.09-1.19-.09-1.22c0-.14,0-.28,0-.42s0-.11,0-.18a38.15,38.15,0,0,0-.68-4.41,36.93,36.93,0,0,0-1.43-4.76,54.23,54.23,0,0,0-4.2-8.5c-1.56-2.61-3.16-5-4.69-7.41l-.29-.44-.25-.4c-.17-.27-.33-.54-.48-.82s-.3-.56-.44-.84-.28-.57-.41-.86a31.1,31.1,0,0,1-1.34-3.55,43.94,43.94,0,0,1-1.57-7.15,58.1,58.1,0,0,1-.52-6.81,42,42,0,0,1,.39-6.27,34.78,34.78,0,0,1,1.21-5.52,39.44,39.44,0,0,1,1.69-4.64c.62-1.39,1.25-2.64,1.87-3.73s1.23-2,1.76-2.84,1-1.46,1.43-2l1.27-1.57L73.57,74.6,72,76.52c-.53.73-1.15,1.57-1.79,2.54-.65.11-1.32.19-2,.34a13.13,13.13,0,0,0-2.18.69,12.46,12.46,0,0,0-3.81,2.54,13,13,0,0,1-2.76.58,11.81,11.81,0,0,1-4.34-.34,13.16,13.16,0,0,1-4.56-2.43l-1.07-1a9.8,9.8,0,0,1-1-1.07,10.7,10.7,0,0,1-1.5-2.54,12.54,12.54,0,0,1-.84-6.22,13.94,13.94,0,0,1,2.35-6.28,12.58,12.58,0,0,1,5.07-4.31c.49-.24,1-.42,1.51-.61s1-.31,1.56-.4a15.35,15.35,0,0,1,3.16-.33c1.07,0,2.13,0,3.14.09l1.51.11,1.46.19.71.1.69.13,1.34.26c.86.24,1.72.41,2.49.69a30.48,30.48,0,0,1,4.15,1.63,29,29,0,0,1,2.93,1.69,17.5,17.5,0,0,1,1.72,1.29c.38.32.56.5.56.5a6,6,0,0,0-.52-.54,10,10,0,0,0-1.45-1.37,3.87,3.87,0,0,1,1-.38c5.66-1.74,6.58-3.79,9.4-6.72a10.1,10.1,0,0,1,1-1.15A17.8,17.8,0,0,0,92,54.6a20.72,20.72,0,0,0,5.1,0,19,19,0,0,0,4.39-1.08,41.55,41.55,0,0,0,6.33,4.27,22.86,22.86,0,0,0,3.51,1.53,13.16,13.16,0,0,0,3.87.74l.9-.35c.56-.23,1.18-.52,1.76-.81a19.55,19.55,0,0,0,1.71-1c.58-.34,1.08-.77,1.63-1.16s1-.84,1.51-1.33a23.16,23.16,0,0,0,3.39-4.17,24.36,24.36,0,0,0,.72,2.49,25.37,25.37,0,0,0,1.89,4.06,26.11,26.11,0,0,0,2.59,3.67,24.5,24.5,0,0,0,3.19,3.17,25.31,25.31,0,0,0,3.67,2.59c.63.4,1.31.72,2,1.07s1.35.64,2,.89c3.5,1.38,7.09,1.76,10.79,2.28A33.72,33.72,0,0,1,144,62a21.71,21.71,0,0,1,13.54-4.13,16,16,0,0,1,9,2.91,10.91,10.91,0,0,1,4.54,8.12c.15,3.94-2.27,7.62-5.41,10s-6.92,3.64-10.64,4.89c-1.66-2.9-4.11-5.14-6.37-7.58a38.23,38.23,0,0,1,9.94,24.68,40.84,40.84,0,0,1-4,18c-2.28,5-5.53,9.4-7.77,14.37a48.39,48.39,0,0,0-3.94,15.55,22.26,22.26,0,0,1-4.23,11.59c-4.55,6.29-16.15,13.26-16.15,13.26a5.82,5.82,0,0,1,1.78-3.35,9.69,9.69,0,0,1,2.59-1.53S123.23,169.26,122,170.21ZM100,201.5c0-1-.07-1.88-.14-3.12a15.53,15.53,0,0,0-.66-3.53c-.34-1.21-.77-2.43-1.25-3.68-1-2.49-2.12-5.1-3.4-7.78-.53-1.11-1.32-2.76-2.19-4.27-.75-1.3-.33-2.73,1.36-1.56,1.39,1,3.07,2.11,4.81,2.19a2.93,2.93,0,0,0,0-1,16.59,16.59,0,0,1-.11-3.51c2,1.6,3.9,3.05,5.29,4.08a1,1,0,0,1,.08.4,72.68,72.68,0,0,0,.86,19.26,18.31,18.31,0,0,1-.84,2.07c-.13.29-.3.57-.45.85C102.21,201.78,101.1,201.64,100,201.5ZM96.52,201c-.13-.93-.28-1.87-.49-2.8a22.52,22.52,0,0,0-2.61-6.84,13,13,0,0,0-1.09-1.58c-.2-.26-.38-.47-.56-.69l-.55-.66c-.72-.88-1.44-1.74-2.13-2.63a53.85,53.85,0,0,1-3.84-5.42,27.15,27.15,0,0,1-2.78-5.84,17.47,17.47,0,0,1-.7-3.09,14.54,14.54,0,0,1-.1-3.16,15,15,0,0,1,.58-3.16,18.55,18.55,0,0,1,1-2.53c.3.51.74,1,1.09,1.69,2,3.93,2.35,8.41,3.83,11.87a67.71,67.71,0,0,0,4.38,8.33c1.54,2.54,3.06,4.9,4.28,7.21a31.39,31.39,0,0,1,1.57,3.43,14,14,0,0,1,.86,3.33,15,15,0,0,1,.12,3C98.4,201.29,97.46,201.15,96.52,201ZM77.43,195.7c-.11-1.26-.23-2.52-.32-3.76a32.49,32.49,0,0,1,0-4.52v0a8.13,8.13,0,0,1,.83-3.12c.35-.72.68-1.46,1-2.19a1.93,1.93,0,0,1,3.49-.24,44.46,44.46,0,0,0,4.11,6q1,1.25,2,2.43c-.68,1.54-1.4,3.07-2.18,4.53-.59,1.14-1.24,2.24-1.91,3.32C82,197.44,79.7,196.6,77.43,195.7Zm-26.57-16,.46-.32a60.56,60.56,0,0,0,6.5-5.29,19.65,19.65,0,0,0,1.46-1.56c.23-.27.45-.56.66-.86l.59-.88a40.14,40.14,0,0,0,2.09-3.66c.64-1.24,1.21-2.51,1.84-3.71l.06-.1c.54-.4,1.09-.78,1.6-1.2a45.24,45.24,0,0,0,5.66-5.58,54.1,54.1,0,0,0,6.54-9.7c.11.72.22,1.44.32,2.16.08.42.15.84.23,1.25a31.6,31.6,0,0,0,.72,5.38A14.08,14.08,0,0,0,81.36,160l.12.14.08.08a64.85,64.85,0,0,1-7.18,7.35,65.87,65.87,0,0,1-9.1,6.65,68.94,68.94,0,0,1-10.21,5c-1.09.43-2.19.83-3.31,1.22ZM43,172.15c-.78-.83-1.52-1.69-2.26-2.56a32.18,32.18,0,0,1,2.65-4.74l1-1.38c.33-.45.7-.88,1-1.34s.57-.67.85-1q.42-.13.84-.3l1-.36,1-.42a33.8,33.8,0,0,0,7.25-4.28,28.23,28.23,0,0,0,5.84-6.16c.38-.6.78-1.19,1.14-1.8s.69-1.24,1-1.87.59-1.29.85-2l.71-2c1.26-3.55,2.67-7.42,4.91-10.52a13.79,13.79,0,0,1,1.08-1.32,57.85,57.85,0,0,1,4,7.68,39.75,39.75,0,0,1,1.49,4.22c.18.72.36,1.44.52,2.18a91.58,91.58,0,0,1-8.48,10.07,58.85,58.85,0,0,1-5.55,4.86,31.76,31.76,0,0,1-6.18,3.65c-.25.13-.55.26-.85.39l-.9.4c-.6.26-1.19.55-1.78.83-1.19.57-2.37,1.17-3.51,1.84A37.28,37.28,0,0,0,44.13,171C43.73,171.36,43.37,171.77,43,172.15Zm-6.38-7.71a23.58,23.58,0,0,1,4.61-1.87l1.1-.29c-.31.4-.63.79-.92,1.21a32.16,32.16,0,0,0-2.32,4.12C38.25,166.57,37.42,165.51,36.62,164.44Zm-3.49-5.07c.42-.77.85-1.53,1.31-2.27.68-1,1.34-2.11,2.1-3.11,2.14-2.82,4.54-5.43,6.94-8a44.26,44.26,0,0,0,6.38-8.47c.84-1.47,2.35-4.64,3.75-7.6a1,1,0,0,1,1.92.44,11.89,11.89,0,0,1,0,2.32,28.39,28.39,0,0,1-1.89,9,21.59,21.59,0,0,1-2.27,4.13,14.91,14.91,0,0,1-3.24,3.39l-1.06.64,1.26.24a1.29,1.29,0,0,0,.25,0h.47l.59,0a11.5,11.5,0,0,0,1.16-.15,17.57,17.57,0,0,0,2.26-.51,22.31,22.31,0,0,0,4.32-1.74l0,0a.83.83,0,0,1,1,1.28,36.18,36.18,0,0,1-4.27,4.19A33.82,33.82,0,0,1,47.66,157c-.58.28-1.16.53-1.76.77s-1.19.49-1.8.7c-1.22.47-2.41.75-3.8,1.26a27.51,27.51,0,0,0-3.87,1.76c-.45.27-.89.57-1.33.86C34.42,161.36,33.77,160.36,33.13,159.37ZM62.56,32.63l.06.06a12.33,12.33,0,0,0,2.31,1.73,18,18,0,0,0,2.53,1.18,36,36,0,0,1,4.68,2.12,4.42,4.42,0,0,1,2.11,1.78l0,0a1.73,1.73,0,0,1-2.1,2.35h0a37.82,37.82,0,0,0-4.35-1.07,37.43,37.43,0,0,0-4.48-.5c-.76,0-1.52,0-2.27,0h-.24a2.3,2.3,0,0,1-2.41-2.07v0a14.76,14.76,0,0,1,0-2.82Q60.44,34,62.56,32.63Zm7.85-4.35c.23.51.45,1,.65,1.54s.41,1.12.57,1.69c.09.29.17.57.25.85s.14.59.18.8l0,.09v.06c.37,1.34.79,2.67,1.27,4l-.55-.37c-1.53-1-3.11-2-4.68-2.82-.79-.42-1.57-.81-2.3-1.24a14.31,14.31,0,0,1-1.68-1.21C66.19,30.45,68.28,29.33,70.41,28.28Zm26.64-8.49c.26.63.5,1.28.7,1.94A62,62,0,0,1,99.7,34a24.51,24.51,0,0,0,5,12.06c2.46,3.25,4.76,6.07,8.37,8,.45.24,1.78,3.19,2.08,4.91a8,8,0,0,1-3.47-.63,22.34,22.34,0,0,1-3.22-1.67,34.48,34.48,0,0,1-5.74-4.53,44.51,44.51,0,0,1-4.82-5.47,37.71,37.71,0,0,1-3.75-6.13,21,21,0,0,1-2-6.7,14.06,14.06,0,0,1,0-3.43l.23-1.86c.07-.63.11-1.27.17-1.9.16-2,.2-4,.18-6C94.11,20.29,95.58,20,97.05,19.79Zm11.81-1.14,0,.36c.09.95.06,1.91.07,2.87,0,.5,0,1,0,1.52,0,.21,0,.55,0,.77a33,33,0,0,0-.88,6.74,25.76,25.76,0,0,0,.41,4.87A22.62,22.62,0,0,0,110,40.46c.68,1.48,1.34,3,1.92,4.51s1.1,3.08,1.54,4.64c.3,1.06.54,2.12.77,3.19-1.26-1.15-2.52-2.3-3.72-3.49a39.09,39.09,0,0,1-4.1-4.54,24,24,0,0,1-4.66-11c-.16-1.1-.31-2.14-.38-3.34a7.67,7.67,0,0,1,0-.83,22.1,22.1,0,0,1,.34-2.48,17.74,17.74,0,0,1,1.69-4.74c.4-.71.89-1.45,1.35-2.19l.86-1.39C106.7,18.74,107.78,18.69,108.86,18.65ZM123,19.2l0,.09a39.44,39.44,0,0,1,2.88,14.07c0,1.23.1,2.46,0,3.64,0,.6,0,1.2-.06,1.79l-.17,1.77a28.13,28.13,0,0,1-1.63,6.86,24.77,24.77,0,0,1-3.43,6.17c-.36.48-.76.93-1.14,1.4s-.81.89-1.26,1.3-1,1-1.61,1.45c.24-.25.52-.57.86-1l.73-.94c.26-.35.51-.75.8-1.18s.54-.9.84-1.4.55-1.07.84-1.64.53-1.22.81-1.87.5-1.36.71-2.1.45-1.5.59-2.31l.24-1.22c.07-.42.11-.85.17-1.28a28.17,28.17,0,0,0,.11-5.46c0-.48-.12-1-.18-1.43s-.11-1-.22-1.45l-.33-1.45a13,13,0,0,0-.4-1.45l-.94-2.75c-.13-.43-.31-.83-.42-1.27l-.36-1.28c-.23-.85-.39-1.71-.58-2.55s-.32-1.67-.42-2.49-.23-1.62-.32-2.41C120.46,19,121.74,19.06,123,19.2Zm10.7,1.86c.34,1.19.65,2.39.91,3.59a36.17,36.17,0,0,1,.72,4.93,26.5,26.5,0,0,1,0,4.88,19.38,19.38,0,0,1-1.08,4.66A16.46,16.46,0,0,1,132,43.34a19.63,19.63,0,0,1-3.32,3.57c-.2.19-.41.37-.62.54a29.28,29.28,0,0,0,1.7-6.34l.25-2c.07-.67.06-1.34.09-2l0-1c0-.34,0-.67,0-1l-.08-2c0-.65-.07-1.31-.15-2l-.21-2c-.21-1.31-.4-2.62-.74-3.92l-.18-.73c.28-.27.54-.55.79-.84a12.54,12.54,0,0,0,1.7-2.8c.06-.13.11-.27.17-.41C132.16,20.69,132.93,20.88,133.7,21.06ZM173.21,41c-.61-.27-1.23-.54-1.85-.79A20.82,20.82,0,0,0,168,39.08a15.36,15.36,0,0,0-3.57-.37,17.15,17.15,0,0,0-2.15.17c.1-.17.19-.34.28-.52a18.47,18.47,0,0,0,1.58-4.21A93.59,93.59,0,0,1,173.21,41Zm28.53,43.28a41.18,41.18,0,0,0-11-8c.4-.36,1.51-1.42,1.9-1.8a30.57,30.57,0,0,0,2.54-2.79c.36-.45.71-.91,1.06-1.37A91.33,91.33,0,0,1,201.74,84.24Zm1.94,44.9c-.3-.29-.59-.58-.87-.88a26.75,26.75,0,0,1-3.14-4c-.18-.28-.35-.57-.53-.86.31,0,.62,0,.93-.08a15.35,15.35,0,0,0,2.6-.52,14.33,14.33,0,0,0,2.2-.86C204.56,124.34,204.18,126.76,203.68,129.14Zm1.38-8.68-.45.27a13.36,13.36,0,0,1-2.27.89c-.79.22-3.37,1.11-4,.24a10.9,10.9,0,0,1-1.08-2.16c-4.38-9.4-7.48-20.74-15.8-27.5-.68-.55.1-1.24.51-1.09a49,49,0,0,1,10.7,5.74c1.19.85,2.08,5.34,2.52,6.72a50.62,50.62,0,0,0,2.36,6.12c1.76,3.72,4.17,7.44,7.53,9.88l.11.06C205.13,119.91,205.09,120.19,205.06,120.46Zm-41.21-35c4,.68,8.72-.48,12.58-1.56,1.14-.32,2.26-.9,3.33-.75,1.31.19,3,1.43,4.23,2,7.2,3.48,14.91,7.49,20.8,13.24.11.77.22,1.53.3,2.3a73.31,73.31,0,0,0-6.53-4.35C187.92,90,175.9,87.47,163.85,85.42Zm40.73,11.26c-1.51-1.57-3.08-3.07-4.73-4.49-2.8-2.51-5.76-4.84-8.79-7.08-1.52-1.11-3.08-2.17-4.65-3.21l-2-1.32a33.83,33.83,0,0,0,3.29-2,38.85,38.85,0,0,1,15.56,11.2C203.74,92,204.22,94.34,204.58,96.68ZM194,66.18A54.69,54.69,0,0,1,164,82.83a52.59,52.59,0,0,1-6,.75c7.61-.5,15.7-6.27,16.07-14.35a1.73,1.73,0,0,1,.24-1,1.7,1.7,0,0,1,.59-.43c5.54-2.89,11.85-2.5,17.66-4.22Q193.31,64.89,194,66.18Zm-2.78-4.6c-1.57.32-3.15.58-4.74.79-1.27.17-2.54.31-3.81.43a26.19,26.19,0,0,0-4.08.54,12.44,12.44,0,0,0-4.6,1.88c-.3.24-1-1.5-1.67-2.51A13.32,13.32,0,0,0,170,60.05a15.79,15.79,0,0,0-2.35-1.71l.5,0c1.51-.11,3-.29,4.53-.28a36.48,36.48,0,0,1,4.54.26c.75.09,1.51.22,2.26.36.37.08.75.16,1.12.26l1.16.3a27.92,27.92,0,0,0,4.94.79c1.19.09,2.38.11,3.56.1C190.62,60.59,190.94,61.08,191.26,61.58ZM184,57.37a11.18,11.18,0,0,0,1.79-.76,9.48,9.48,0,0,0,1.36-.91c.71.94,1.4,1.9,2.07,2.86A26.74,26.74,0,0,1,184,57.37Zm2.43-2.59a8.64,8.64,0,0,1-1.2.8,10.65,10.65,0,0,1-3.15,1.06l-.68-.27L180.24,56c-.81-.26-1.62-.5-2.44-.69a19.29,19.29,0,0,0-2.5-.46,24.18,24.18,0,0,0-2.54-.22,21.08,21.08,0,0,0-5.08.38c-.42.11-.83.21-1.23.35a12.26,12.26,0,0,0-1.19.47l-.68.37a2.39,2.39,0,0,1-1.72.25l-1.5-.31h0a1.1,1.1,0,0,1-.46-2c2-1.27,4-2.44,6.16-3.55s4.05-2.1,6.15-3.08h0a16.74,16.74,0,0,1,3.2,1.29c.6.32,1.18.66,1.75,1l.87.6c.33.22.66.44,1,.64A13.36,13.36,0,0,0,182.17,52a12.8,12.8,0,0,0,2.28.7c.14,0,.29.05.43.08C185.41,53.46,185.94,54.11,186.46,54.78ZM142.1,61.26a39.8,39.8,0,0,0,3.79,5.23c.89,1,1.82,2,2.79,3a40.25,40.25,0,0,1-5.74-2.14,30,30,0,0,1-7-4.47,29.6,29.6,0,0,1-5.43-6.22,32.29,32.29,0,0,1-3.31-6.56l.32-.14a21.93,21.93,0,0,0,2.36-1.33c.52-.33,1-.69,1.5-1.07a14.09,14.09,0,0,0,4.09,2.31,17,17,0,0,0,3.06.79q0,.75.12,1.5a20.66,20.66,0,0,0,.71,3.21A27,27,0,0,0,142.1,61.26ZM139.84,52a1,1,0,0,1,1.06-1.12h.89a22.29,22.29,0,0,0,6.25-1.1l1.48-.52L151,48.6c.49-.2.94-.44,1.4-.68s.92-.48,1.36-.74A25.75,25.75,0,0,0,160.14,42c1.54-.25,3-.4,4.5-.54a29.12,29.12,0,0,1,3.12-.18,25.79,25.79,0,0,1,3.22.28,36,36,0,0,1,3.83.76c.53.47,1,1,1.56,1.45h-1l-2.71.15a24.34,24.34,0,0,0-2.71.21c-1.8.24-3.61.42-5.38.83l-1.34.27-.67.14-.66.18-2.64.71a51.3,51.3,0,0,0-10.07,4.3c-.79.46-1.59.91-2.35,1.43l-1.15.76-1.11.83c-.82.66-1.54,1.24-2.27,1.93a1.09,1.09,0,0,1-1.8-.48v0a19.78,19.78,0,0,1-.67-3Zm3.77,9.49-.51-.81a25.08,25.08,0,0,1-1.36-2.56c1.32-1,2.72-2,4.06-2.94l1-.78,1.09-.73c.72-.5,1.48-.94,2.24-1.38a54.3,54.3,0,0,1,9.63-4.3l2.54-.78L163,47l.65-.15,1.29-.31,1.29-.31.65-.16.66-.11,2.62-.47c.87-.18,1.76-.26,2.64-.37l2.66-.32c.62-.07,1.24-.1,1.87-.13l.08.08c-1.7.31-3.41.63-5.11,1A36.62,36.62,0,0,0,165.8,48a30.24,30.24,0,0,0-5.93,3.55,19.94,19.94,0,0,0-4.47,4.74c-.71.12-1.39.31-2,.46s-1.48.44-2.16.71-1.31.51-1.89.79-1.13.54-1.63.8c-1,.52-1.85,1-2.52,1.44s-1.19.76-1.53,1Zm37.75-12.69a9.85,9.85,0,0,1-.86-.57c-.28-.2-.65-.44-1-.65a13.26,13.26,0,0,0-2.18-1c-.42-.14-.84-.26-1.27-.36.67-.27,1.34-.51,2-.76,1.14,1.11,2.24,2.25,3.32,3.42ZM161.74,32.61a18.93,18.93,0,0,1-2.09,4,11.66,11.66,0,0,1-.79,1.06l-.85,1c-.3.32-.63.61-.94.92-.16.16-.3.32-.47.46l-.52.42c-.34.27-.67.56-1,.82L154,42l-.55.37-.6.34-1.19.69a30.66,30.66,0,0,1-10.1,3.45,19.77,19.77,0,0,1-8.58-.67c.39-.39.78-.79,1.14-1.21a18.6,18.6,0,0,0,4.2-9.27,9.56,9.56,0,0,1,1.55-.59,23.44,23.44,0,0,1,3.56-.75c.6-.09,1.21-.16,1.82-.22s1.23-.12,1.84-.17,1.24-.1,1.87-.16l1-.1.93-.16A25.57,25.57,0,0,0,158,31.26l.75-.41C159.77,31.42,160.76,32,161.74,32.61Zm-23.23.65v0A2.79,2.79,0,0,1,140,30.84h0a13,13,0,0,0,2.36-1.68,11,11,0,0,0,2-2.26c.1-.16.2-.33.29-.5.13.81.23,1.62.28,2.43a13.82,13.82,0,0,1,0,2.41,3.76,3.76,0,0,1-.62,1.85l-1,.14a25.37,25.37,0,0,0-3.72.78h0A.75.75,0,0,1,138.51,33.26Zm19-3a24.13,24.13,0,0,1-6.89,2.21l-.9.16-.91.09c-.6.06-1.21.12-1.84.16l-1.27.11c0-.07.06-.14.08-.2a6.75,6.75,0,0,0,.29-1.36,14.47,14.47,0,0,0,0-2.63c-.05-.87-.16-1.72-.29-2.57-.09-.52-.19-1-.29-1.55a93.43,93.43,0,0,1,12.06,5.54Zm-14.81-4.62a19.59,19.59,0,0,1-1.91,1.68c-.67.54-1.37,1.06-2.05,1.64l-.35.29a30.88,30.88,0,0,0-1.1-5.24c-.23-.74-.48-1.48-.75-2.21,2.5.67,5,1.42,7.39,2.28A8.37,8.37,0,0,1,142.68,25.59Zm-12.54-5.13a10.91,10.91,0,0,1-1.78,2.83h0c-.19-.61-.37-1.22-.61-1.81s-.46-1.18-.73-1.74c1.07.17,2.14.36,3.19.56A1,1,0,0,1,130.14,20.46Zm-12.64,1c0,.85.15,1.73.24,2.63s.25,1.81.46,2.73a21.27,21.27,0,0,0,.75,2.81c.29.89.59,1.79.89,2.7a11.92,11.92,0,0,1,.38,1.33c.11.44.23.88.34,1.32.18.89.34,1.76.47,2.63a31.39,31.39,0,0,1,.26,5.07c0,.4,0,.81,0,1.2s-.07.79-.11,1.17c0,.78-.21,1.51-.31,2.24s-.31,1.4-.44,2.07l-.21.72a30.77,30.77,0,0,0,.69-7.8,37.16,37.16,0,0,0-2.13-10.79c-.34-.94-.61-1.8-.89-2.66-.14-.43-.2-.89-.31-1.32s-.21-.87-.26-1.32c-.11-.88-.26-1.74-.29-2.61,0-.42-.07-.85-.1-1.27s0-.84,0-1.25c0-.82,0-1.61,0-2.39.18,0,.35,0,.53,0C117.42,19.61,117.45,20.53,117.5,21.48Zm-1.69,2.2c0,.89.14,1.79.24,2.72a13.34,13.34,0,0,0,.25,1.38,14.24,14.24,0,0,0,.31,1.41c.29.92.58,1.88.9,2.76a40.64,40.64,0,0,1,2.26,10.42,32.16,32.16,0,0,1-.5,8.7,18.81,18.81,0,0,1-2,5.55,11.33,11.33,0,0,1-.92,1.33l-.1.12c-.12-1.29-.25-2.6-.45-3.89a48.2,48.2,0,0,0-1-4.92q-.63-2.44-1.49-4.8c-.55-1.58-1.2-3.12-1.86-4.66a21.47,21.47,0,0,1-1.66-8.87,32.24,32.24,0,0,1,.72-6.33c.09-.54.54-2.37.72-2.91.3-1.05.65-2.09,1-3.12,1.22,0,2.43,0,3.64.09,0,.78-.1,1.58-.12,2.42,0,.42,0,.85,0,1.28Zm-12-4.09c-.46.73-.93,1.44-1.39,2.24a18.5,18.5,0,0,0-1.67,4.5,38.69,38.69,0,0,0-1.3-5.14c-.19-.56-.4-1.12-.64-1.67,1.79-.25,3.59-.44,5.41-.59ZM85.07,25.9a25.62,25.62,0,0,1,4.65,3.34l-.12.83a17.08,17.08,0,0,0-.1,4,22.86,22.86,0,0,0,2.24,7.57,33.28,33.28,0,0,0,6.52,8.93c-.3-.19-.61-.4-.93-.64s-.83-.6-1.26-.95c-.87-.69-1.78-1.49-2.72-2.37-.45-.46-.94-.92-1.41-1.41l-1.42-1.56L89.11,42l-1.37-1.83c-.89-1.27-1.81-2.59-2.63-4-.22-.35-.43-.7-.64-1L83.9,34c-.39-.73-.74-1.36-1.18-2.13a19.6,19.6,0,0,0-1.32-2.13l-.71-1c-.23-.33-.51-.61-.76-.91L79.17,27l-.81-.78a14.17,14.17,0,0,0-1.11-1c1.17-.47,2.34-.92,3.54-1.34A37,37,0,0,1,85.07,25.9Zm-2.56-2.56c2.64-.87,5.34-1.63,8.08-2.27-.1,1.78-.25,3.56-.47,5.33-.06.49-.13,1-.2,1.45a26.77,26.77,0,0,0-4.27-3C84.62,24.31,83.58,23.8,82.51,23.34Zm-7.27,2.72c.06.07.13.13.18.2a18.92,18.92,0,0,1,1.25,1.51l.61.81.56.87c.19.3.4.58.57.9l.53,1a22.13,22.13,0,0,1,1,2L81,35.55l.59,1.16c.22.39.46.76.69,1.14A33.13,33.13,0,0,0,85.37,42c.57.62,1.11,1.23,1.68,1.8l1.72,1.61,1.74,1.41c.57.43,1.16.82,1.71,1.21A36.7,36.7,0,0,0,95.44,50c.5.28,1,.51,1.45.73s1.12.48,1.67.75a15.24,15.24,0,0,1,1.65,1,21.1,21.1,0,0,1-7.81-.32,18.1,18.1,0,0,1-7.88-4.05,22.44,22.44,0,0,1-3-3.29l-.65-.92c-.21-.31-.4-.64-.61-1-.42-.62-.76-1.31-1.12-2a42.55,42.55,0,0,1-3.26-8.62c-.08-.37-.16-.66-.25-1s-.19-.68-.31-1a19.56,19.56,0,0,0-.79-2c-.26-.55-.55-1.08-.85-1.6C74.19,26.53,74.71,26.28,75.24,26.06ZM58.63,130.3c0-.73.08-1.47.16-2.21a38.6,38.6,0,0,1,1.78-7.72c.42-1.25.89-2.5,1.39-3.72.08-.2,1.39-2.86,1.5-2.65a4.09,4.09,0,0,1,.17.69,32.41,32.41,0,0,0,1.4,4q.21.51.45,1c.15.34.32.67.5,1s.36.67.56,1l.3.5.28.44c.62,1,1.26,2,1.9,3-.75,2.35-1.51,4.64-2.44,6.83a30.92,30.92,0,0,1-4.16,7.35A22,22,0,0,1,59.58,143a24.08,24.08,0,0,1-3.33,2.61,25.33,25.33,0,0,1-3.75,2.07c-.66.29-1.33.56-2,.8l-.13,0a29.14,29.14,0,0,0,4.83-6.15,23.12,23.12,0,0,0,3.35-9.55c.05-.43.07-.87.09-1.31V130.3ZM64.9,89.89a9.35,9.35,0,0,1-.62,1.54l-.12.2a6.1,6.1,0,0,1-1.62,1.54A25.61,25.61,0,0,1,54,97.11c-2.78.71-6.56,1.37-9.36.6,4.76-1.65,9.7-3.35,13.36-7,2.68-2.65,4.42-6.11,7.19-8.67A7.89,7.89,0,0,1,69.57,80,43.45,43.45,0,0,0,64.9,89.89ZM63.34,95c.1.46-.33.83-.62,1.12-1.27,1.22-2.43,2.54-3.61,3.85-.81.89-1.6,1.81-2.36,2.73l-.47.57c-1.08,1.33-2.05,3.15-3.2,4.82a52.7,52.7,0,0,0-3.3,5.58,61.79,61.79,0,0,0-2.76,6.6c-.85,2.28-1.69,4.61-2.61,7a67.18,67.18,0,0,1-6.27,12.65,37,37,0,0,1-3.8,4.84,29.11,29.11,0,0,1-4,3.61,25.62,25.62,0,0,1-2.5,1.69l-.27-.59.2-.15a33.24,33.24,0,0,0,5.78-5.83c.4-.57.84-1.12,1.21-1.72l.55-.9a10.63,10.63,0,0,0,.53-.93c.31-.63.67-1.29.92-1.91s.53-1.24.77-1.86c1-2.49,1.88-5,2.75-7.44l5.11-14.77c.86-2.43,1.73-4.86,2.7-7.22.48-1.18,1-2.34,1.56-3.46a10.77,10.77,0,0,1,2-3l0,0a13.74,13.74,0,0,1,4.6-2.54A23,23,0,0,0,60.2,96c.51-.27,1.42-.87,2.19-1.4A.62.62,0,0,1,63.34,95Zm-4.08-8.93-1.38,1.69c-.23.27-.47.55-.71.81s-.45.48-.69.72a32.66,32.66,0,0,1-7.19,4.55c-2.61,1.29-5.3,2.44-8,3.57h0L39,98.14l2.34.4a35.14,35.14,0,0,0,6.4.53,27.9,27.9,0,0,0,3.87-.3,53.26,53.26,0,0,1-14.09,4.4c-.75.14-1.59.28-2.3.42a47.81,47.81,0,0,0-16.51,6.29c0-.25,0-.5,0-.75l1.18-1A113.14,113.14,0,0,1,36.21,95.47,106.54,106.54,0,0,1,54.46,86a71.72,71.72,0,0,1,6.86-2.37C60.58,84.42,59.91,85.25,59.26,86.06ZM54,84.45a62.53,62.53,0,0,0-19.52,8.31A64.47,64.47,0,0,0,18.8,106.91c0-.23,0-.46,0-.69,4.58-6.5,13.2-16,28.85-26.12a13.51,13.51,0,0,0,2,1.61A14.13,14.13,0,0,0,55,83.88c.37.06.72.1,1.07.13C55.39,84.14,54.71,84.28,54,84.45ZM21.48,88.26l1.21-.11a24.63,24.63,0,0,0,4.57-.69c5.23-1.51,7.3-3.77,8.27-5s1.82-2.44,2.69-3.61A24.36,24.36,0,0,1,41,75.64l0,0a2.5,2.5,0,0,1,4,.8l.18.35v0A3.35,3.35,0,0,1,44,81c-3.1,2.11-5.69,4.1-8.3,6.16A27.62,27.62,0,0,1,32,88.3a28.09,28.09,0,0,1-6.19.74c-1,0-2.07-.07-3.09-.13l-1.35-.19C21.41,88.56,21.44,88.41,21.48,88.26Zm8.35,2c1.19-1.17,3.62-1.48,2.85-.63a122.84,122.84,0,0,0-9.09,8.7,15.26,15.26,0,0,1-2.73.15c-.44,0-.88-.06-1.32-.1.1-.76.19-1.51.31-2.26.63-.19,1.27-.38,1.9-.61.8-.28,1.57-.65,2.36-1A16.14,16.14,0,0,0,29.83,90.29ZM43.75,69.44a14.42,14.42,0,0,0,.15,3.29,13.63,13.63,0,0,0-3.79,1.72,21,21,0,0,0-3.53,3c-1.07,1.09-2,2.23-3,3.26a12.83,12.83,0,0,1-3.12,2.47,14.39,14.39,0,0,1-3.8,1.1c-1.37.25-2.79.41-4.22.55.06-.19.11-.38.17-.57a29.47,29.47,0,0,0,2.77-1.9A37.23,37.23,0,0,0,30,78c1.36-1.55,2.73-3.09,4.16-4.59s2.86-3,4.36-4.38,3-2.82,4.57-4.13c.9-.74,1.82-1.46,2.75-2.16A15.38,15.38,0,0,0,43.75,69.44ZM42,63.54a83.52,83.52,0,0,0-7.48,6.7,12.85,12.85,0,0,1-3,.05,20.64,20.64,0,0,1-3.09-.55c.45-.9.91-1.79,1.39-2.67l1.11-.28.63-.17.16,0,1.78-.64c.54-.21,1.06-.47,1.62-.7l.38-.18.67-.34c1.82-.91,3.63-2,5.52-3.23s3.83-2.42,5.87-3.63,4.2-2.36,6.44-3.44a31.29,31.29,0,0,1,6.68-2.3,45.4,45.4,0,0,1,6.65-1,68.34,68.34,0,0,1,11.61.07c.72.06,1.4.13,2.06.21A17.08,17.08,0,0,1,86.24,53c.24.11.47.22.72.32s.7.27,1.06.39l-.1.08-1.35,1.17c-.89.76-1.77,1.46-2.62,2.1q-.65.48-1.26.9c-.42.29-.83.55-1.23.79s-.8.45-1.18.65l-.58.27-.56.23a10.1,10.1,0,0,1-1.07.34,6.44,6.44,0,0,1-1,.2l-.46,0H76.2a2.46,2.46,0,0,1-.56,0,30.27,30.27,0,0,0-4-2.08c-.78-.37-1.63-.63-2.5-1l-2-.61h0l-.73-.17-1.5-.35L63.27,56c-1.06-.2-2.17-.24-3.3-.36a17,17,0,0,0-3.61.14,15.29,15.29,0,0,0-1.86.37,16.06,16.06,0,0,0-1.84.64,14.53,14.53,0,0,0-3.45,2.06.43.43,0,0,0-.1.09c-.65.32-1.28.67-1.9,1A49.58,49.58,0,0,0,42,63.54Zm14.41-25a9.72,9.72,0,0,0,.63,1.91,1.51,1.51,0,0,0,.11.22l-.67.12c-.76.11-1.49.33-2.23.51a26.23,26.23,0,0,0-6.86,3,94.25,94.25,0,0,1,8.81-7.4A12.75,12.75,0,0,0,56.43,38.52ZM36.07,60.06a17.87,17.87,0,0,0,3-3.59l1.17-1.73c.41-.57.86-1.11,1.28-1.67a28.56,28.56,0,0,1,6.07-5.66A23.67,23.67,0,0,1,55,44a29.82,29.82,0,0,1,8.22-1A45.35,45.35,0,0,1,77.78,45.8a23.23,23.23,0,0,0,4.66,4.84,2.61,2.61,0,0,0,.27.19c-1.09-.29-2.29-.59-3.6-.89a57.63,57.63,0,0,0-11.9-1.47,36.59,36.59,0,0,0-7.17.58,28.29,28.29,0,0,0-7.47,2.41,58.2,58.2,0,0,0-6.64,3.83c-2,1.38-3.93,2.8-5.68,4.16s-3.4,2.64-5,3.69l-.6.41-.6.36-1.18.69-1.17.58c-.2.1-.38.2-.58.28l-.51.2c.49-.85,1-1.71,1.49-2.54A27.34,27.34,0,0,0,36.07,60.06ZM27.86,70.81a20.91,20.91,0,0,0,3.53.65,16.88,16.88,0,0,0,1.89.07l-.52.52c-1.46,1.51-2.87,3.06-4.26,4.61a42.25,42.25,0,0,1-4.33,4.24l-.65.5A89.79,89.79,0,0,1,27.86,70.81ZM21.19,89.5l1.47.14a27.92,27.92,0,0,0,3.17,0,25.08,25.08,0,0,0,2.61-.27,11.38,11.38,0,0,1-3.12,2.23,32.4,32.4,0,0,1-4.31,2l-.74.26C20.54,92.36,20.85,90.92,21.19,89.5ZM19.38,99.58c.48,0,1,.08,1.45.1s1.06,0,1.59,0c-1.32,1.51-2.45,2.92-3.45,4.25C19.07,102.46,19.21,101,19.38,99.58Zm-.51,16a9.42,9.42,0,0,1,5.43-7.19,13.81,13.81,0,0,1,3.54-1.29c1.43-.25,2.2.83,1.36,2-.28.41-.53.83-.78,1.25a37.9,37.9,0,0,0-2.57,5.24c-.38.89-.67,1.81-1,2.72s-.59,1.82-.82,2.75l-.36,1.39-.31,1.4-.59,2.69c-.18.77-.38,1.53-.59,2.28a9.65,9.65,0,0,1-1.17.68l-.23.09A89.91,89.91,0,0,1,18.87,115.62Zm2.64,15,.19-.1c-.13.41-.28.82-.43,1.22l-.21-.92Zm.75,4.84a28.39,28.39,0,0,0,1.41-2.67,37.44,37.44,0,0,0,2.07-5.39c.56-1.88,1-3.58,1.56-5.3a53.14,53.14,0,0,1,1.9-5,36.76,36.76,0,0,1,2.44-4.71c.22-.38.45-.75.7-1.1s.48-.73.75-1.06c.51-.7,1.07-1.34,1.6-2s1.07-1.29,1.62-1.93l.41-.49c.15-.15.29-.32.44-.48.27-.37.59-.64.9-1a66.63,66.63,0,0,0,10-2.68l-.32.34a28.37,28.37,0,0,0-2.43,3.31,56.61,56.61,0,0,0-3.79,7.12c-1.6,3.53-2.92,7.14-4.15,10.76l-.18.28a61,61,0,0,1-5.79,7.32q-1.59,1.71-3.33,3.26a40.4,40.4,0,0,1-3.65,2.87c-.48.33-1,.64-1.48.94C22.7,137,22.49,136.24,22.26,135.46Zm2.83,2.36a44.45,44.45,0,0,0,3.76-3q1.78-1.59,3.41-3.33c1.37-1.48,2.64-3,3.86-4.63a3.38,3.38,0,0,0-.11.34l-2.41,7.43c-.41,1.23-.83,2.44-1.29,3.51a28.36,28.36,0,0,1-1.7,3.22,40.44,40.44,0,0,1-4.22,5.48q-1.71-3.88-3.06-7.95C23.93,138.58,24.52,138.21,25.09,137.82Zm3.11,12.91A28.23,28.23,0,0,0,31,149.31a29.73,29.73,0,0,0,4.64-3.24,36,36,0,0,0,4.59-4.64,50.44,50.44,0,0,0,7.49-12.86c1-2.43,1.86-4.83,2.63-7.13s1.46-4.51,2.29-6.48,1.7-3.9,2.55-5.66,1.73-3.37,2.56-4.83A68.85,68.85,0,0,1,62,97.76c.42-.56.78-1,1.06-1.37-.2,1-.38,2-.52,3.07a37.45,37.45,0,0,0-.27,7.32,39.48,39.48,0,0,0,.82,5.86c-.26.23-.52.46-.76.71s-.44.44-.66.67l-.08.1c-.33.36-.65.72-1,1.09a38.72,38.72,0,0,0-2.92,4.07,64.77,64.77,0,0,0-4.61,8.81c-1.32,3-2.7,6-4.3,8.82a38.31,38.31,0,0,1-6.7,9,19.94,19.94,0,0,1-6,3.86,32.12,32.12,0,0,1-7.4,2.11C28.59,151.48,28.39,151.11,28.2,150.73Zm1.93,2.08,1.33-.29a34.49,34.49,0,0,0,5.2-1.65c.41-.18.83-.36,1.24-.56-.8,1-1.59,2-2.31,3s-1.45,2.11-2.15,3.17c-.36.59-.7,1.18-1,1.78-1.08-1.73-2.08-3.5-3-5.3Zm25.86,30c0,.21.12.42.16.63s.05.34.07.51c-.41-.3-.79-.62-1.2-.92Zm1.31.41c0-.24-.1-.47-.16-.7a44.86,44.86,0,0,0,10.48-4.31,38.76,38.76,0,0,0,9.64-7.74l0,0a1.12,1.12,0,0,1,2,.78v.06a13.15,13.15,0,0,1-1.15,5.05c-.67,1.5-1.37,3-2.13,4.39a33.24,33.24,0,0,1-2.68,4.33,25.87,25.87,0,0,1-3.42,3.63c-.86.77-1.78,1.5-2.72,2.2a92.62,92.62,0,0,1-9.64-6C57.46,184.34,57.4,183.79,57.3,183.25Zm15.12,8.28a27.64,27.64,0,0,0,2-2,19.37,19.37,0,0,0,1.43-1.77,36.23,36.23,0,0,0,.07,4.3c.08,1.07.17,2.13.27,3.19-1.81-.74-3.58-1.54-5.33-2.39C71.41,192.41,71.92,192,72.42,191.53ZM88.84,196a24.58,24.58,0,0,0,1-4,12.57,12.57,0,0,1,.8,1.08,21.94,21.94,0,0,1,2.57,5.83c.15.52.27,1.06.4,1.59-2.08-.41-4.12-.91-6.14-1.45A26.32,26.32,0,0,0,88.84,196Zm-1.79-30.3a64.25,64.25,0,0,0,6.43,5.63l.1.1c1.16.94,2.36,1.9,3.53,2.83-.08,1.17-.19,2.48-.2,3.49A10.85,10.85,0,0,1,94.32,176,34.06,34.06,0,0,1,90,171.67a16.93,16.93,0,0,1-2.85-5.76C87.11,165.83,87.08,165.74,87.05,165.65Zm17.79,35.89c.12-.26.23-.51.34-.77.15.43.33.86.5,1.29l-1.07-.08C104.68,201.83,104.77,201.69,104.84,201.54Zm53.35-70.08a33.84,33.84,0,0,0,5.69,8.84,17.38,17.38,0,0,0,1.94,1.8,17.13,17.13,0,0,1-5.32-1.73,14.05,14.05,0,0,1-5.37-4.89c-.69-1.08-2.76-4.29-2.7-5.59v-.14c1-1.71,2.11-3.38,3.16-5C155.13,125.45,157.8,130.64,158.19,131.46Zm-14.55,36c.19,1.68.45,3.35.76,5a56.16,56.16,0,0,0,7.9,20.38h0c-2.81-2.68-5.55-5.43-8.18-8.27-1.25-1.33-2.44-2.72-3.62-4.11s-2.33-2.8-3.44-4.24c-.81-1-3.64-4-4.64-4.9,1.2-1.09,3.11-3,4.18-4.27,3-3.5,4.07-5.51,5.38-4.07A13.3,13.3,0,0,1,143.64,167.42Zm-11.77,29.74c.21.41.44.81.68,1.2a14,14,0,0,0,1.08,1.48c-.95.22-1.9.44-2.86.63C131.19,199.38,131.55,198.28,131.87,197.16Zm13.7-.94a34.87,34.87,0,0,0-1-5.46c-.13-.52-.28-1-.44-1.54q2.84,2.72,5.88,5.17Q147.83,195.37,145.57,196.22Zm4.54-44.15-.05-.07a2.05,2.05,0,0,1,2.19-3.18l.07,0a10.81,10.81,0,0,1,5,3.32c2.23,2.38,4,5.29,7.17,6.64C159.06,159,153.33,156.61,150.11,152.07Zm2.66-4.92a28.77,28.77,0,0,1-6.29-2.44c0-.14,0-.27.05-.4.06-.44.14-1,.23-1.53s.24-1.06.37-1.57a35.3,35.3,0,0,1,1.4-4,45.35,45.35,0,0,1,2-4.09c.08.15.16.31.25.46l1.09,1.79,1.19,1.72c.39.58.85,1.1,1.27,1.66l.65.81.7.78c.48.5.92,1,1.42,1.52a36.79,36.79,0,0,0,3.08,2.78l.8.66a8.39,8.39,0,0,0,.82.62l1.69,1.19c.55.41,1.16.74,1.74,1.09l.2.11c-.62.05-1.24.08-1.86.08-1.21,0-2.43,0-3.64-.07A35.69,35.69,0,0,1,152.77,147.15Zm7.89-48.59c.74.61,1.47,1.24,2.15,1.88A27.24,27.24,0,0,1,171.07,115c-.56-.87-1.17-1.71-1.8-2.54a26.68,26.68,0,0,0-7.88-7,36.49,36.49,0,0,0-.35-4.76C160.94,100,160.8,99.27,160.66,98.56Zm19.22,52.35c-4.29-5.26-5-12.49-6.51-19.12s-4.33-13.42-9.08-18.46a15.62,15.62,0,0,1-2.61-3.14,4,4,0,0,1-.15-3.92,25.89,25.89,0,0,1,11,14.69c-.42-1.49.33-4.08.2-5.73a26.68,26.68,0,0,0-1.29-6.32c-1.41-4.2-4-7.2-6.56-10.56a20.77,20.77,0,0,1,10.29,11.13c2.25,5.75,1.87,12.16,2.68,18.29A46.09,46.09,0,0,0,190.76,154c.77.76,1.56,1.49,2.38,2.19-.35.6-.68,1.21-1,1.8C187.39,156.79,182.93,154.64,179.88,150.91Zm12.31,1.73a43.6,43.6,0,0,1-4.74-6.34h0l.5.1,1,.19,1,.3a13.64,13.64,0,0,1,3.59,1.77,18.73,18.73,0,0,1,2.55,2.18c-.64,1.27-1.3,2.53-2,3.76C193.44,154,192.8,153.32,192.19,152.64Zm4.72-3.53a16.24,16.24,0,0,0-2.29-2,12.05,12.05,0,0,0-4.18-2l-1.14-.24c-.39,0-.77-.06-1.16-.08a5.43,5.43,0,0,0-.57,0l-.58,0-.37,0-.49-.89a47.78,47.78,0,0,1-4.41-11.87,1.82,1.82,0,0,1,3-1.77l0,0a26.23,26.23,0,0,0,8.3,4.84c.32.11.64.2,1,.3.62,1.41,1.29,3.31,1.82,4.74s1,3.06,1.5,4.61c.2.7.38,1.41.56,2.11C197.57,147.71,197.25,148.41,196.91,149.11Zm-1.63-14.65a28.92,28.92,0,0,1-11.52-6.77,11.37,11.37,0,0,1-3-3.94c-1-2.39-.46-5.09-.5-7.67a20.88,20.88,0,0,0-5.69-13.56,28.4,28.4,0,0,0-12.68-7.64,3.63,3.63,0,0,1-1.53-.73A3.09,3.09,0,0,1,159.7,93a74.57,74.57,0,0,0-3-7.15c2.59-1.15,7.17,1.34,9.36,2.78,8.88,5.85,11.81,16.82,15.65,26.08,2.64,6.38,6.19,12.76,12,16.45a20.07,20.07,0,0,0,8.74,3c-.1.38-.22.74-.32,1.11A21.73,21.73,0,0,1,195.28,134.46Zm-2.36-6c-4.35-3.64-7.18-8.8-9.42-14-4.3-10-7.67-22-18.27-27.2,4.25,0,9.63,3.73,12.71,6.54,4.25,3.88,7.21,9,10,14s5.37,10.25,8.8,14.87a37.84,37.84,0,0,0,6.83,7.13c-.25,1.13-.51,2.25-.8,3.37A22.49,22.49,0,0,1,192.92,128.44Zm12.71-18c0,2.36-.12,4.69-.3,7l-.29-.36c-.64-.88-1.25-1.79-1.82-2.75-1.14-1.9-3.11-4.39-6.66-15.43.17.13,1.91,1.14,2.76,1.62,1.64.89,3.28,1.75,4.83,2.72.41.27.82.53,1.23.81C205.53,106.17,205.63,108.29,205.63,110.44Zm-160.42,64c.36-.31.7-.63,1.07-.92a40.34,40.34,0,0,1,6.16-4c1.08-.59,2.18-1.14,3.31-1.66.57-.25,1.13-.52,1.71-.76l.86-.36c.28-.12.57-.24.89-.4l1.85-.91c.52-.26,1-.57,1.49-.87-.32.66-.64,1.33-1,2a37.79,37.79,0,0,1-2,3.55L59,171q-.28.39-.6.78c-.43.51-.89,1-1.38,1.47a58.18,58.18,0,0,1-6.37,5.17l-.69.5C48.31,177.47,46.74,176,45.21,174.44Zm63.45,27.78c0-.11-.1-.21-.14-.32a33.06,33.06,0,0,1-2.14-9.73c-.14-1.86-.23-7.74-.19-11.22a5.09,5.09,0,0,1,.47.34c2,1.57,3.58,3.29,5.37,4.73.89-1,4.54-4.7,6.89-5.93.86-.45,3.17-1.82,4-2.3-1.87,4.42-5.32,14.24-6.2,19.83a28.79,28.79,0,0,0-.35,4.58c-1.4.06-2.81.11-4.22.11C111,202.31,109.83,202.26,108.66,202.22Zm69.82-27.12c-.7-.59-1.46-1.12-2.21-1.65s-1.57-1-2.36-1.53c-1.6-1-3.25-1.88-4.9-2.72s-3.31-1.6-4.9-2.38c-.42-.21-.84-.42-1.26-.65a15.58,15.58,0,0,1-4.25-3.42c-.65-.73-1.29-1.47-1.91-2.24l0,0a.78.78,0,0,1,.85-1.24l.59.19a20.2,20.2,0,0,0,6,.87,10.64,10.64,0,0,0,4.3-.87l-1.7-.79a26.59,26.59,0,0,1-3.31-1.89,33.22,33.22,0,0,1-3.44-2.7,16.85,16.85,0,0,1-2.14-2.33h0c-.6-.8,0-1.74,1-1.85,3.83-.43,5.84,4.11,6.39,4.88a22.08,22.08,0,0,0,3.77,4.19,23.84,23.84,0,0,0,4.65,3.23,19.85,19.85,0,0,0,2.62,1.16,15.54,15.54,0,0,0,2.8.71,20,20,0,0,0,2.29.24c.86,1.66,1.64,3.41,2.34,5.17C182.05,171.4,180.31,173.29,178.48,175.1Z"/></g></g></svg>